<mxfile host="app.diagrams.net" agent="Mozilla/5.0 (Windows NT 10.0; Win64; x64) AppleWebKit/537.36 (KHTML, like Gecko) Chrome/131.0.0.0 Safari/537.36" version="25.0.3">
  <diagram id="t8QoFsj8MZgXzhcuyan1" name="Page-1">
    <mxGraphModel dx="2333" dy="1469" grid="1" gridSize="10" guides="1" tooltips="1" connect="1" arrows="1" fold="1" page="1" pageScale="1" pageWidth="2339" pageHeight="3300" math="0" shadow="0">
      <root>
        <mxCell id="0" />
        <mxCell id="1" parent="0" />
        <mxCell id="2" value="10" style="rounded=1;html=1;fontFamily=Alegreya;fontSource=https%3A%2F%2Ffonts.googleapis.com%2Fcss%3Ffamily%3DAlegreya;whiteSpace=wrap;" parent="1" vertex="1">
          <mxGeometry x="600" y="130" width="40" height="30" as="geometry" />
        </mxCell>
        <mxCell id="3" value="3" style="rounded=1;html=1;fontFamily=Alegreya;fontSource=https%3A%2F%2Ffonts.googleapis.com%2Fcss%3Ffamily%3DAlegreya;whiteSpace=wrap;" parent="1" vertex="1">
          <mxGeometry x="440" y="210" width="40" height="30" as="geometry" />
        </mxCell>
        <mxCell id="4" value="18" style="rounded=1;html=1;fontFamily=Alegreya;fontSource=https%3A%2F%2Ffonts.googleapis.com%2Fcss%3Ffamily%3DAlegreya;whiteSpace=wrap;" parent="1" vertex="1">
          <mxGeometry x="760" y="210" width="40" height="30" as="geometry" />
        </mxCell>
        <mxCell id="5" value="1" style="rounded=1;html=1;fontFamily=Alegreya;fontSource=https%3A%2F%2Ffonts.googleapis.com%2Fcss%3Ffamily%3DAlegreya;whiteSpace=wrap;" parent="1" vertex="1">
          <mxGeometry x="360" y="290" width="40" height="30" as="geometry" />
        </mxCell>
        <mxCell id="11" value="15" style="rounded=1;html=1;fontFamily=Alegreya;fontSource=https%3A%2F%2Ffonts.googleapis.com%2Fcss%3Ffamily%3DAlegreya;whiteSpace=wrap;" parent="1" vertex="1">
          <mxGeometry x="680" y="290" width="40" height="30" as="geometry" />
        </mxCell>
        <mxCell id="12" value="19" style="rounded=1;html=1;fontFamily=Alegreya;fontSource=https%3A%2F%2Ffonts.googleapis.com%2Fcss%3Ffamily%3DAlegreya;whiteSpace=wrap;" parent="1" vertex="1">
          <mxGeometry x="840" y="290" width="40" height="30" as="geometry" />
        </mxCell>
        <mxCell id="14" value="16" style="rounded=1;html=1;fontFamily=Alegreya;fontSource=https%3A%2F%2Ffonts.googleapis.com%2Fcss%3Ffamily%3DAlegreya;whiteSpace=wrap;" parent="1" vertex="1">
          <mxGeometry x="720" y="370" width="40" height="30" as="geometry" />
        </mxCell>
        <mxCell id="17" value="" style="endArrow=blockThin;html=1;fontFamily=Alegreya;fontSource=https%3A%2F%2Ffonts.googleapis.com%2Fcss%3Ffamily%3DAlegreya;endFill=1;" parent="1" source="2" target="3" edge="1">
          <mxGeometry width="50" height="50" relative="1" as="geometry">
            <mxPoint x="420" y="240" as="sourcePoint" />
            <mxPoint x="470" y="190" as="targetPoint" />
          </mxGeometry>
        </mxCell>
        <mxCell id="18" value="" style="endArrow=blockThin;html=1;fontFamily=Alegreya;fontSource=https%3A%2F%2Ffonts.googleapis.com%2Fcss%3Ffamily%3DAlegreya;endFill=1;" parent="1" source="2" target="4" edge="1">
          <mxGeometry width="50" height="50" relative="1" as="geometry">
            <mxPoint x="730" y="200" as="sourcePoint" />
            <mxPoint x="640" y="255.38461538461547" as="targetPoint" />
          </mxGeometry>
        </mxCell>
        <mxCell id="19" value="" style="endArrow=blockThin;html=1;fontFamily=Alegreya;fontSource=https%3A%2F%2Ffonts.googleapis.com%2Fcss%3Ffamily%3DAlegreya;endFill=1;" parent="1" source="4" target="12" edge="1">
          <mxGeometry width="50" height="50" relative="1" as="geometry">
            <mxPoint x="860" y="290" as="sourcePoint" />
            <mxPoint x="770" y="345.3846153846155" as="targetPoint" />
          </mxGeometry>
        </mxCell>
        <mxCell id="20" value="" style="endArrow=blockThin;html=1;fontFamily=Alegreya;fontSource=https%3A%2F%2Ffonts.googleapis.com%2Fcss%3Ffamily%3DAlegreya;endFill=1;" parent="1" source="4" target="11" edge="1">
          <mxGeometry width="50" height="50" relative="1" as="geometry">
            <mxPoint x="690" y="280" as="sourcePoint" />
            <mxPoint x="600" y="335.3846153846155" as="targetPoint" />
          </mxGeometry>
        </mxCell>
        <mxCell id="21" value="" style="endArrow=blockThin;html=1;fontFamily=Alegreya;fontSource=https%3A%2F%2Ffonts.googleapis.com%2Fcss%3Ffamily%3DAlegreya;endFill=1;" parent="1" source="3" target="5" edge="1">
          <mxGeometry width="50" height="50" relative="1" as="geometry">
            <mxPoint x="530" y="280" as="sourcePoint" />
            <mxPoint x="440" y="335.3846153846155" as="targetPoint" />
          </mxGeometry>
        </mxCell>
        <mxCell id="28" value="" style="endArrow=blockThin;html=1;fontFamily=Alegreya;fontSource=https%3A%2F%2Ffonts.googleapis.com%2Fcss%3Ffamily%3DAlegreya;endFill=1;" parent="1" source="11" target="14" edge="1">
          <mxGeometry width="50" height="50" relative="1" as="geometry">
            <mxPoint x="770" y="360" as="sourcePoint" />
            <mxPoint x="680" y="415.3846153846155" as="targetPoint" />
          </mxGeometry>
        </mxCell>
        <mxCell id="31" value="17" style="rounded=1;html=1;fontFamily=Alegreya;fontSource=https%3A%2F%2Ffonts.googleapis.com%2Fcss%3Ffamily%3DAlegreya;whiteSpace=wrap;" parent="1" vertex="1">
          <mxGeometry x="750" y="440" width="40" height="30" as="geometry" />
        </mxCell>
        <mxCell id="32" value="" style="endArrow=blockThin;html=1;fontFamily=Alegreya;fontSource=https%3A%2F%2Ffonts.googleapis.com%2Fcss%3Ffamily%3DAlegreya;endFill=1;" parent="1" source="14" target="31" edge="1">
          <mxGeometry width="50" height="50" relative="1" as="geometry">
            <mxPoint x="750" y="430" as="sourcePoint" />
            <mxPoint x="775" y="480" as="targetPoint" />
          </mxGeometry>
        </mxCell>
        <mxCell id="934mbEcJw2QFP8VTqF5C-32" value="10" style="rounded=1;html=1;fontFamily=Alegreya;fontSource=https%3A%2F%2Ffonts.googleapis.com%2Fcss%3Ffamily%3DAlegreya;whiteSpace=wrap;" vertex="1" parent="1">
          <mxGeometry x="1720" y="130" width="40" height="30" as="geometry" />
        </mxCell>
        <mxCell id="934mbEcJw2QFP8VTqF5C-33" value="3" style="rounded=1;html=1;fontFamily=Alegreya;fontSource=https%3A%2F%2Ffonts.googleapis.com%2Fcss%3Ffamily%3DAlegreya;whiteSpace=wrap;" vertex="1" parent="1">
          <mxGeometry x="1560" y="210" width="40" height="30" as="geometry" />
        </mxCell>
        <mxCell id="934mbEcJw2QFP8VTqF5C-34" value="18" style="rounded=1;html=1;fontFamily=Alegreya;fontSource=https%3A%2F%2Ffonts.googleapis.com%2Fcss%3Ffamily%3DAlegreya;whiteSpace=wrap;" vertex="1" parent="1">
          <mxGeometry x="1880" y="210" width="40" height="30" as="geometry" />
        </mxCell>
        <mxCell id="934mbEcJw2QFP8VTqF5C-35" value="1" style="rounded=1;html=1;fontFamily=Alegreya;fontSource=https%3A%2F%2Ffonts.googleapis.com%2Fcss%3Ffamily%3DAlegreya;whiteSpace=wrap;" vertex="1" parent="1">
          <mxGeometry x="1480" y="290" width="40" height="30" as="geometry" />
        </mxCell>
        <mxCell id="934mbEcJw2QFP8VTqF5C-36" value="15" style="rounded=1;html=1;fontFamily=Alegreya;fontSource=https%3A%2F%2Ffonts.googleapis.com%2Fcss%3Ffamily%3DAlegreya;whiteSpace=wrap;" vertex="1" parent="1">
          <mxGeometry x="1800" y="290" width="40" height="30" as="geometry" />
        </mxCell>
        <mxCell id="934mbEcJw2QFP8VTqF5C-37" value="19" style="rounded=1;html=1;fontFamily=Alegreya;fontSource=https%3A%2F%2Ffonts.googleapis.com%2Fcss%3Ffamily%3DAlegreya;whiteSpace=wrap;" vertex="1" parent="1">
          <mxGeometry x="1960" y="290" width="40" height="30" as="geometry" />
        </mxCell>
        <mxCell id="934mbEcJw2QFP8VTqF5C-38" value="16" style="rounded=1;html=1;fontFamily=Alegreya;fontSource=https%3A%2F%2Ffonts.googleapis.com%2Fcss%3Ffamily%3DAlegreya;whiteSpace=wrap;" vertex="1" parent="1">
          <mxGeometry x="1840" y="370" width="40" height="30" as="geometry" />
        </mxCell>
        <mxCell id="934mbEcJw2QFP8VTqF5C-39" value="" style="endArrow=blockThin;html=1;fontFamily=Alegreya;fontSource=https%3A%2F%2Ffonts.googleapis.com%2Fcss%3Ffamily%3DAlegreya;endFill=1;" edge="1" parent="1" source="934mbEcJw2QFP8VTqF5C-32" target="934mbEcJw2QFP8VTqF5C-33">
          <mxGeometry width="50" height="50" relative="1" as="geometry">
            <mxPoint x="1540" y="240" as="sourcePoint" />
            <mxPoint x="1590" y="190" as="targetPoint" />
          </mxGeometry>
        </mxCell>
        <mxCell id="934mbEcJw2QFP8VTqF5C-40" value="" style="endArrow=blockThin;html=1;fontFamily=Alegreya;fontSource=https%3A%2F%2Ffonts.googleapis.com%2Fcss%3Ffamily%3DAlegreya;endFill=1;" edge="1" parent="1" source="934mbEcJw2QFP8VTqF5C-32" target="934mbEcJw2QFP8VTqF5C-34">
          <mxGeometry width="50" height="50" relative="1" as="geometry">
            <mxPoint x="1850" y="200" as="sourcePoint" />
            <mxPoint x="1760" y="255.38461538461547" as="targetPoint" />
          </mxGeometry>
        </mxCell>
        <mxCell id="934mbEcJw2QFP8VTqF5C-41" value="" style="endArrow=blockThin;html=1;fontFamily=Alegreya;fontSource=https%3A%2F%2Ffonts.googleapis.com%2Fcss%3Ffamily%3DAlegreya;endFill=1;" edge="1" parent="1" source="934mbEcJw2QFP8VTqF5C-34" target="934mbEcJw2QFP8VTqF5C-37">
          <mxGeometry width="50" height="50" relative="1" as="geometry">
            <mxPoint x="1980" y="290" as="sourcePoint" />
            <mxPoint x="1890" y="345.3846153846155" as="targetPoint" />
          </mxGeometry>
        </mxCell>
        <mxCell id="934mbEcJw2QFP8VTqF5C-42" value="" style="endArrow=blockThin;html=1;fontFamily=Alegreya;fontSource=https%3A%2F%2Ffonts.googleapis.com%2Fcss%3Ffamily%3DAlegreya;endFill=1;" edge="1" parent="1" source="934mbEcJw2QFP8VTqF5C-34" target="934mbEcJw2QFP8VTqF5C-36">
          <mxGeometry width="50" height="50" relative="1" as="geometry">
            <mxPoint x="1810" y="280" as="sourcePoint" />
            <mxPoint x="1720" y="335.3846153846155" as="targetPoint" />
          </mxGeometry>
        </mxCell>
        <mxCell id="934mbEcJw2QFP8VTqF5C-43" value="" style="endArrow=blockThin;html=1;fontFamily=Alegreya;fontSource=https%3A%2F%2Ffonts.googleapis.com%2Fcss%3Ffamily%3DAlegreya;endFill=1;" edge="1" parent="1" source="934mbEcJw2QFP8VTqF5C-33" target="934mbEcJw2QFP8VTqF5C-35">
          <mxGeometry width="50" height="50" relative="1" as="geometry">
            <mxPoint x="1650" y="280" as="sourcePoint" />
            <mxPoint x="1560" y="335.3846153846155" as="targetPoint" />
          </mxGeometry>
        </mxCell>
        <mxCell id="934mbEcJw2QFP8VTqF5C-44" value="" style="endArrow=blockThin;html=1;fontFamily=Alegreya;fontSource=https%3A%2F%2Ffonts.googleapis.com%2Fcss%3Ffamily%3DAlegreya;endFill=1;" edge="1" parent="1" source="934mbEcJw2QFP8VTqF5C-36" target="934mbEcJw2QFP8VTqF5C-38">
          <mxGeometry width="50" height="50" relative="1" as="geometry">
            <mxPoint x="1890" y="360" as="sourcePoint" />
            <mxPoint x="1800" y="415.3846153846155" as="targetPoint" />
          </mxGeometry>
        </mxCell>
        <mxCell id="934mbEcJw2QFP8VTqF5C-45" value="17" style="rounded=1;html=1;fontFamily=Alegreya;fontSource=https%3A%2F%2Ffonts.googleapis.com%2Fcss%3Ffamily%3DAlegreya;whiteSpace=wrap;" vertex="1" parent="1">
          <mxGeometry x="1870" y="440" width="40" height="30" as="geometry" />
        </mxCell>
        <mxCell id="934mbEcJw2QFP8VTqF5C-46" value="" style="endArrow=blockThin;html=1;fontFamily=Alegreya;fontSource=https%3A%2F%2Ffonts.googleapis.com%2Fcss%3Ffamily%3DAlegreya;endFill=1;" edge="1" parent="1" source="934mbEcJw2QFP8VTqF5C-38" target="934mbEcJw2QFP8VTqF5C-45">
          <mxGeometry width="50" height="50" relative="1" as="geometry">
            <mxPoint x="1870" y="430" as="sourcePoint" />
            <mxPoint x="1895" y="480" as="targetPoint" />
          </mxGeometry>
        </mxCell>
        <mxCell id="934mbEcJw2QFP8VTqF5C-47" value="10" style="rounded=1;html=1;fontFamily=Alegreya;fontSource=https%3A%2F%2Ffonts.googleapis.com%2Fcss%3Ffamily%3DAlegreya;whiteSpace=wrap;" vertex="1" parent="1">
          <mxGeometry x="660" y="800" width="40" height="30" as="geometry" />
        </mxCell>
        <mxCell id="934mbEcJw2QFP8VTqF5C-48" value="3" style="rounded=1;html=1;fontFamily=Alegreya;fontSource=https%3A%2F%2Ffonts.googleapis.com%2Fcss%3Ffamily%3DAlegreya;whiteSpace=wrap;" vertex="1" parent="1">
          <mxGeometry x="500" y="880" width="40" height="30" as="geometry" />
        </mxCell>
        <mxCell id="934mbEcJw2QFP8VTqF5C-49" value="18" style="rounded=1;html=1;fontFamily=Alegreya;fontSource=https%3A%2F%2Ffonts.googleapis.com%2Fcss%3Ffamily%3DAlegreya;whiteSpace=wrap;" vertex="1" parent="1">
          <mxGeometry x="820" y="880" width="40" height="30" as="geometry" />
        </mxCell>
        <mxCell id="934mbEcJw2QFP8VTqF5C-50" value="1" style="rounded=1;html=1;fontFamily=Alegreya;fontSource=https%3A%2F%2Ffonts.googleapis.com%2Fcss%3Ffamily%3DAlegreya;whiteSpace=wrap;" vertex="1" parent="1">
          <mxGeometry x="420" y="960" width="40" height="30" as="geometry" />
        </mxCell>
        <mxCell id="934mbEcJw2QFP8VTqF5C-51" value="15" style="rounded=1;html=1;fontFamily=Alegreya;fontSource=https%3A%2F%2Ffonts.googleapis.com%2Fcss%3Ffamily%3DAlegreya;whiteSpace=wrap;" vertex="1" parent="1">
          <mxGeometry x="740" y="960" width="40" height="30" as="geometry" />
        </mxCell>
        <mxCell id="934mbEcJw2QFP8VTqF5C-52" value="19" style="rounded=1;html=1;fontFamily=Alegreya;fontSource=https%3A%2F%2Ffonts.googleapis.com%2Fcss%3Ffamily%3DAlegreya;whiteSpace=wrap;" vertex="1" parent="1">
          <mxGeometry x="900" y="960" width="40" height="30" as="geometry" />
        </mxCell>
        <mxCell id="934mbEcJw2QFP8VTqF5C-53" value="16" style="rounded=1;html=1;fontFamily=Alegreya;fontSource=https%3A%2F%2Ffonts.googleapis.com%2Fcss%3Ffamily%3DAlegreya;whiteSpace=wrap;" vertex="1" parent="1">
          <mxGeometry x="780" y="1040" width="40" height="30" as="geometry" />
        </mxCell>
        <mxCell id="934mbEcJw2QFP8VTqF5C-54" value="" style="endArrow=blockThin;html=1;fontFamily=Alegreya;fontSource=https%3A%2F%2Ffonts.googleapis.com%2Fcss%3Ffamily%3DAlegreya;endFill=1;" edge="1" parent="1" source="934mbEcJw2QFP8VTqF5C-47" target="934mbEcJw2QFP8VTqF5C-48">
          <mxGeometry width="50" height="50" relative="1" as="geometry">
            <mxPoint x="480" y="910" as="sourcePoint" />
            <mxPoint x="530" y="860" as="targetPoint" />
          </mxGeometry>
        </mxCell>
        <mxCell id="934mbEcJw2QFP8VTqF5C-55" value="" style="endArrow=blockThin;html=1;fontFamily=Alegreya;fontSource=https%3A%2F%2Ffonts.googleapis.com%2Fcss%3Ffamily%3DAlegreya;endFill=1;" edge="1" parent="1" source="934mbEcJw2QFP8VTqF5C-47" target="934mbEcJw2QFP8VTqF5C-49">
          <mxGeometry width="50" height="50" relative="1" as="geometry">
            <mxPoint x="790" y="870" as="sourcePoint" />
            <mxPoint x="700" y="925.3846153846155" as="targetPoint" />
          </mxGeometry>
        </mxCell>
        <mxCell id="934mbEcJw2QFP8VTqF5C-56" value="" style="endArrow=blockThin;html=1;fontFamily=Alegreya;fontSource=https%3A%2F%2Ffonts.googleapis.com%2Fcss%3Ffamily%3DAlegreya;endFill=1;" edge="1" parent="1" source="934mbEcJw2QFP8VTqF5C-49" target="934mbEcJw2QFP8VTqF5C-52">
          <mxGeometry width="50" height="50" relative="1" as="geometry">
            <mxPoint x="920" y="960" as="sourcePoint" />
            <mxPoint x="830" y="1015.3846153846155" as="targetPoint" />
          </mxGeometry>
        </mxCell>
        <mxCell id="934mbEcJw2QFP8VTqF5C-57" value="" style="endArrow=blockThin;html=1;fontFamily=Alegreya;fontSource=https%3A%2F%2Ffonts.googleapis.com%2Fcss%3Ffamily%3DAlegreya;endFill=1;" edge="1" parent="1" source="934mbEcJw2QFP8VTqF5C-49" target="934mbEcJw2QFP8VTqF5C-51">
          <mxGeometry width="50" height="50" relative="1" as="geometry">
            <mxPoint x="750" y="950" as="sourcePoint" />
            <mxPoint x="660" y="1005.3846153846155" as="targetPoint" />
          </mxGeometry>
        </mxCell>
        <mxCell id="934mbEcJw2QFP8VTqF5C-58" value="" style="endArrow=blockThin;html=1;fontFamily=Alegreya;fontSource=https%3A%2F%2Ffonts.googleapis.com%2Fcss%3Ffamily%3DAlegreya;endFill=1;" edge="1" parent="1" source="934mbEcJw2QFP8VTqF5C-48" target="934mbEcJw2QFP8VTqF5C-50">
          <mxGeometry width="50" height="50" relative="1" as="geometry">
            <mxPoint x="590" y="950" as="sourcePoint" />
            <mxPoint x="500" y="1005.3846153846155" as="targetPoint" />
          </mxGeometry>
        </mxCell>
        <mxCell id="934mbEcJw2QFP8VTqF5C-59" value="" style="endArrow=blockThin;html=1;fontFamily=Alegreya;fontSource=https%3A%2F%2Ffonts.googleapis.com%2Fcss%3Ffamily%3DAlegreya;endFill=1;" edge="1" parent="1" source="934mbEcJw2QFP8VTqF5C-51" target="934mbEcJw2QFP8VTqF5C-53">
          <mxGeometry width="50" height="50" relative="1" as="geometry">
            <mxPoint x="830" y="1030" as="sourcePoint" />
            <mxPoint x="740" y="1085.3846153846155" as="targetPoint" />
          </mxGeometry>
        </mxCell>
        <mxCell id="934mbEcJw2QFP8VTqF5C-60" value="17" style="rounded=1;html=1;fontFamily=Alegreya;fontSource=https%3A%2F%2Ffonts.googleapis.com%2Fcss%3Ffamily%3DAlegreya;whiteSpace=wrap;" vertex="1" parent="1">
          <mxGeometry x="810" y="1110" width="40" height="30" as="geometry" />
        </mxCell>
        <mxCell id="934mbEcJw2QFP8VTqF5C-61" value="" style="endArrow=blockThin;html=1;fontFamily=Alegreya;fontSource=https%3A%2F%2Ffonts.googleapis.com%2Fcss%3Ffamily%3DAlegreya;endFill=1;" edge="1" parent="1" source="934mbEcJw2QFP8VTqF5C-53" target="934mbEcJw2QFP8VTqF5C-60">
          <mxGeometry width="50" height="50" relative="1" as="geometry">
            <mxPoint x="810" y="1100" as="sourcePoint" />
            <mxPoint x="835" y="1150" as="targetPoint" />
          </mxGeometry>
        </mxCell>
        <mxCell id="934mbEcJw2QFP8VTqF5C-62" value="10" style="rounded=1;html=1;fontFamily=Alegreya;fontSource=https%3A%2F%2Ffonts.googleapis.com%2Fcss%3Ffamily%3DAlegreya;whiteSpace=wrap;" vertex="1" parent="1">
          <mxGeometry x="1970" y="680" width="40" height="30" as="geometry" />
        </mxCell>
        <mxCell id="934mbEcJw2QFP8VTqF5C-63" value="3" style="rounded=1;html=1;fontFamily=Alegreya;fontSource=https%3A%2F%2Ffonts.googleapis.com%2Fcss%3Ffamily%3DAlegreya;whiteSpace=wrap;" vertex="1" parent="1">
          <mxGeometry x="1810" y="760" width="40" height="30" as="geometry" />
        </mxCell>
        <mxCell id="934mbEcJw2QFP8VTqF5C-64" value="18" style="rounded=1;html=1;fontFamily=Alegreya;fontSource=https%3A%2F%2Ffonts.googleapis.com%2Fcss%3Ffamily%3DAlegreya;whiteSpace=wrap;" vertex="1" parent="1">
          <mxGeometry x="2130" y="760" width="40" height="30" as="geometry" />
        </mxCell>
        <mxCell id="934mbEcJw2QFP8VTqF5C-65" value="1" style="rounded=1;html=1;fontFamily=Alegreya;fontSource=https%3A%2F%2Ffonts.googleapis.com%2Fcss%3Ffamily%3DAlegreya;whiteSpace=wrap;" vertex="1" parent="1">
          <mxGeometry x="1730" y="840" width="40" height="30" as="geometry" />
        </mxCell>
        <mxCell id="934mbEcJw2QFP8VTqF5C-66" value="15" style="rounded=1;html=1;fontFamily=Alegreya;fontSource=https%3A%2F%2Ffonts.googleapis.com%2Fcss%3Ffamily%3DAlegreya;whiteSpace=wrap;" vertex="1" parent="1">
          <mxGeometry x="2050" y="840" width="40" height="30" as="geometry" />
        </mxCell>
        <mxCell id="934mbEcJw2QFP8VTqF5C-67" value="19" style="rounded=1;html=1;fontFamily=Alegreya;fontSource=https%3A%2F%2Ffonts.googleapis.com%2Fcss%3Ffamily%3DAlegreya;whiteSpace=wrap;" vertex="1" parent="1">
          <mxGeometry x="2210" y="840" width="40" height="30" as="geometry" />
        </mxCell>
        <mxCell id="934mbEcJw2QFP8VTqF5C-68" value="16" style="rounded=1;html=1;fontFamily=Alegreya;fontSource=https%3A%2F%2Ffonts.googleapis.com%2Fcss%3Ffamily%3DAlegreya;whiteSpace=wrap;" vertex="1" parent="1">
          <mxGeometry x="2090" y="920" width="40" height="30" as="geometry" />
        </mxCell>
        <mxCell id="934mbEcJw2QFP8VTqF5C-69" value="" style="endArrow=blockThin;html=1;fontFamily=Alegreya;fontSource=https%3A%2F%2Ffonts.googleapis.com%2Fcss%3Ffamily%3DAlegreya;endFill=1;" edge="1" parent="1" source="934mbEcJw2QFP8VTqF5C-62" target="934mbEcJw2QFP8VTqF5C-63">
          <mxGeometry width="50" height="50" relative="1" as="geometry">
            <mxPoint x="1790" y="790" as="sourcePoint" />
            <mxPoint x="1840" y="740" as="targetPoint" />
          </mxGeometry>
        </mxCell>
        <mxCell id="934mbEcJw2QFP8VTqF5C-70" value="" style="endArrow=blockThin;html=1;fontFamily=Alegreya;fontSource=https%3A%2F%2Ffonts.googleapis.com%2Fcss%3Ffamily%3DAlegreya;endFill=1;" edge="1" parent="1" source="934mbEcJw2QFP8VTqF5C-62" target="934mbEcJw2QFP8VTqF5C-64">
          <mxGeometry width="50" height="50" relative="1" as="geometry">
            <mxPoint x="2100" y="750" as="sourcePoint" />
            <mxPoint x="2010" y="805.3846153846155" as="targetPoint" />
          </mxGeometry>
        </mxCell>
        <mxCell id="934mbEcJw2QFP8VTqF5C-71" value="" style="endArrow=blockThin;html=1;fontFamily=Alegreya;fontSource=https%3A%2F%2Ffonts.googleapis.com%2Fcss%3Ffamily%3DAlegreya;endFill=1;" edge="1" parent="1" source="934mbEcJw2QFP8VTqF5C-64" target="934mbEcJw2QFP8VTqF5C-67">
          <mxGeometry width="50" height="50" relative="1" as="geometry">
            <mxPoint x="2230" y="840" as="sourcePoint" />
            <mxPoint x="2140" y="895.3846153846155" as="targetPoint" />
          </mxGeometry>
        </mxCell>
        <mxCell id="934mbEcJw2QFP8VTqF5C-72" value="" style="endArrow=blockThin;html=1;fontFamily=Alegreya;fontSource=https%3A%2F%2Ffonts.googleapis.com%2Fcss%3Ffamily%3DAlegreya;endFill=1;" edge="1" parent="1" source="934mbEcJw2QFP8VTqF5C-64" target="934mbEcJw2QFP8VTqF5C-66">
          <mxGeometry width="50" height="50" relative="1" as="geometry">
            <mxPoint x="2060" y="830" as="sourcePoint" />
            <mxPoint x="1970" y="885.3846153846155" as="targetPoint" />
          </mxGeometry>
        </mxCell>
        <mxCell id="934mbEcJw2QFP8VTqF5C-73" value="" style="endArrow=blockThin;html=1;fontFamily=Alegreya;fontSource=https%3A%2F%2Ffonts.googleapis.com%2Fcss%3Ffamily%3DAlegreya;endFill=1;" edge="1" parent="1" source="934mbEcJw2QFP8VTqF5C-63" target="934mbEcJw2QFP8VTqF5C-65">
          <mxGeometry width="50" height="50" relative="1" as="geometry">
            <mxPoint x="1900" y="830" as="sourcePoint" />
            <mxPoint x="1810" y="885.3846153846155" as="targetPoint" />
          </mxGeometry>
        </mxCell>
        <mxCell id="934mbEcJw2QFP8VTqF5C-74" value="" style="endArrow=blockThin;html=1;fontFamily=Alegreya;fontSource=https%3A%2F%2Ffonts.googleapis.com%2Fcss%3Ffamily%3DAlegreya;endFill=1;" edge="1" parent="1" source="934mbEcJw2QFP8VTqF5C-66" target="934mbEcJw2QFP8VTqF5C-68">
          <mxGeometry width="50" height="50" relative="1" as="geometry">
            <mxPoint x="2140" y="910" as="sourcePoint" />
            <mxPoint x="2050" y="965.3846153846155" as="targetPoint" />
          </mxGeometry>
        </mxCell>
        <mxCell id="934mbEcJw2QFP8VTqF5C-75" value="17" style="rounded=1;html=1;fontFamily=Alegreya;fontSource=https%3A%2F%2Ffonts.googleapis.com%2Fcss%3Ffamily%3DAlegreya;whiteSpace=wrap;" vertex="1" parent="1">
          <mxGeometry x="2120" y="990" width="40" height="30" as="geometry" />
        </mxCell>
        <mxCell id="934mbEcJw2QFP8VTqF5C-76" value="" style="endArrow=blockThin;html=1;fontFamily=Alegreya;fontSource=https%3A%2F%2Ffonts.googleapis.com%2Fcss%3Ffamily%3DAlegreya;endFill=1;" edge="1" parent="1" source="934mbEcJw2QFP8VTqF5C-68" target="934mbEcJw2QFP8VTqF5C-75">
          <mxGeometry width="50" height="50" relative="1" as="geometry">
            <mxPoint x="2120" y="980" as="sourcePoint" />
            <mxPoint x="2145" y="1030" as="targetPoint" />
          </mxGeometry>
        </mxCell>
        <mxCell id="934mbEcJw2QFP8VTqF5C-77" value="&#xa;b) 8, 5, 9, 7, 4&#xa;&#xa;&#xa;" style="text;whiteSpace=wrap;" vertex="1" parent="1">
          <mxGeometry x="1550" y="80" width="100" height="60" as="geometry" />
        </mxCell>
        <mxCell id="934mbEcJw2QFP8VTqF5C-78" value="5" style="rounded=1;html=1;fontFamily=Alegreya;fontSource=https%3A%2F%2Ffonts.googleapis.com%2Fcss%3Ffamily%3DAlegreya;whiteSpace=wrap;" vertex="1" parent="1">
          <mxGeometry x="500" y="260" width="40" height="30" as="geometry" />
        </mxCell>
        <mxCell id="934mbEcJw2QFP8VTqF5C-81" value="4" style="rounded=1;html=1;fontFamily=Alegreya;fontSource=https%3A%2F%2Ffonts.googleapis.com%2Fcss%3Ffamily%3DAlegreya;whiteSpace=wrap;" vertex="1" parent="1">
          <mxGeometry x="460" y="320" width="40" height="30" as="geometry" />
        </mxCell>
        <mxCell id="934mbEcJw2QFP8VTqF5C-83" value="8" style="rounded=1;html=1;fontFamily=Alegreya;fontSource=https%3A%2F%2Ffonts.googleapis.com%2Fcss%3Ffamily%3DAlegreya;whiteSpace=wrap;" vertex="1" parent="1">
          <mxGeometry x="550" y="320" width="40" height="30" as="geometry" />
        </mxCell>
        <mxCell id="934mbEcJw2QFP8VTqF5C-84" value="7" style="rounded=1;html=1;fontFamily=Alegreya;fontSource=https%3A%2F%2Ffonts.googleapis.com%2Fcss%3Ffamily%3DAlegreya;whiteSpace=wrap;" vertex="1" parent="1">
          <mxGeometry x="520" y="390" width="40" height="30" as="geometry" />
        </mxCell>
        <mxCell id="934mbEcJw2QFP8VTqF5C-85" value="9" style="rounded=1;html=1;fontFamily=Alegreya;fontSource=https%3A%2F%2Ffonts.googleapis.com%2Fcss%3Ffamily%3DAlegreya;whiteSpace=wrap;" vertex="1" parent="1">
          <mxGeometry x="600" y="390" width="40" height="30" as="geometry" />
        </mxCell>
        <mxCell id="934mbEcJw2QFP8VTqF5C-86" value="5" style="rounded=1;html=1;fontFamily=Alegreya;fontSource=https%3A%2F%2Ffonts.googleapis.com%2Fcss%3Ffamily%3DAlegreya;whiteSpace=wrap;" vertex="1" parent="1">
          <mxGeometry x="1570" y="340" width="40" height="30" as="geometry" />
        </mxCell>
        <mxCell id="934mbEcJw2QFP8VTqF5C-87" value="4" style="rounded=1;html=1;fontFamily=Alegreya;fontSource=https%3A%2F%2Ffonts.googleapis.com%2Fcss%3Ffamily%3DAlegreya;whiteSpace=wrap;" vertex="1" parent="1">
          <mxGeometry x="1520" y="390" width="40" height="30" as="geometry" />
        </mxCell>
        <mxCell id="934mbEcJw2QFP8VTqF5C-88" value="8" style="rounded=1;html=1;fontFamily=Alegreya;fontSource=https%3A%2F%2Ffonts.googleapis.com%2Fcss%3Ffamily%3DAlegreya;whiteSpace=wrap;" vertex="1" parent="1">
          <mxGeometry x="1620" y="280" width="40" height="30" as="geometry" />
        </mxCell>
        <mxCell id="934mbEcJw2QFP8VTqF5C-89" value="7" style="rounded=1;html=1;fontFamily=Alegreya;fontSource=https%3A%2F%2Ffonts.googleapis.com%2Fcss%3Ffamily%3DAlegreya;whiteSpace=wrap;" vertex="1" parent="1">
          <mxGeometry x="1610" y="390" width="40" height="30" as="geometry" />
        </mxCell>
        <mxCell id="934mbEcJw2QFP8VTqF5C-90" value="9" style="rounded=1;html=1;fontFamily=Alegreya;fontSource=https%3A%2F%2Ffonts.googleapis.com%2Fcss%3Ffamily%3DAlegreya;whiteSpace=wrap;" vertex="1" parent="1">
          <mxGeometry x="1680" y="340" width="40" height="30" as="geometry" />
        </mxCell>
        <mxCell id="934mbEcJw2QFP8VTqF5C-91" value="5" style="rounded=1;html=1;fontFamily=Alegreya;fontSource=https%3A%2F%2Ffonts.googleapis.com%2Fcss%3Ffamily%3DAlegreya;whiteSpace=wrap;" vertex="1" parent="1">
          <mxGeometry x="590" y="1280" width="40" height="30" as="geometry" />
        </mxCell>
        <mxCell id="934mbEcJw2QFP8VTqF5C-92" value="4" style="rounded=1;html=1;fontFamily=Alegreya;fontSource=https%3A%2F%2Ffonts.googleapis.com%2Fcss%3Ffamily%3DAlegreya;whiteSpace=wrap;" vertex="1" parent="1">
          <mxGeometry x="670" y="1280" width="40" height="30" as="geometry" />
        </mxCell>
        <mxCell id="934mbEcJw2QFP8VTqF5C-93" value="8" style="rounded=1;html=1;fontFamily=Alegreya;fontSource=https%3A%2F%2Ffonts.googleapis.com%2Fcss%3Ffamily%3DAlegreya;whiteSpace=wrap;" vertex="1" parent="1">
          <mxGeometry x="750" y="1280" width="40" height="30" as="geometry" />
        </mxCell>
        <mxCell id="934mbEcJw2QFP8VTqF5C-94" value="7" style="rounded=1;html=1;fontFamily=Alegreya;fontSource=https%3A%2F%2Ffonts.googleapis.com%2Fcss%3Ffamily%3DAlegreya;whiteSpace=wrap;" vertex="1" parent="1">
          <mxGeometry x="830" y="1270" width="40" height="30" as="geometry" />
        </mxCell>
        <mxCell id="934mbEcJw2QFP8VTqF5C-95" value="9" style="rounded=1;html=1;fontFamily=Alegreya;fontSource=https%3A%2F%2Ffonts.googleapis.com%2Fcss%3Ffamily%3DAlegreya;whiteSpace=wrap;" vertex="1" parent="1">
          <mxGeometry x="910" y="1270" width="40" height="30" as="geometry" />
        </mxCell>
        <mxCell id="934mbEcJw2QFP8VTqF5C-96" value="5" style="rounded=1;html=1;fontFamily=Alegreya;fontSource=https%3A%2F%2Ffonts.googleapis.com%2Fcss%3Ffamily%3DAlegreya;whiteSpace=wrap;" vertex="1" parent="1">
          <mxGeometry x="1830" y="1120" width="40" height="30" as="geometry" />
        </mxCell>
        <mxCell id="934mbEcJw2QFP8VTqF5C-97" value="4" style="rounded=1;html=1;fontFamily=Alegreya;fontSource=https%3A%2F%2Ffonts.googleapis.com%2Fcss%3Ffamily%3DAlegreya;whiteSpace=wrap;" vertex="1" parent="1">
          <mxGeometry x="1910" y="1120" width="40" height="30" as="geometry" />
        </mxCell>
        <mxCell id="934mbEcJw2QFP8VTqF5C-98" value="8" style="rounded=1;html=1;fontFamily=Alegreya;fontSource=https%3A%2F%2Ffonts.googleapis.com%2Fcss%3Ffamily%3DAlegreya;whiteSpace=wrap;" vertex="1" parent="1">
          <mxGeometry x="1990" y="1120" width="40" height="30" as="geometry" />
        </mxCell>
        <mxCell id="934mbEcJw2QFP8VTqF5C-99" value="7" style="rounded=1;html=1;fontFamily=Alegreya;fontSource=https%3A%2F%2Ffonts.googleapis.com%2Fcss%3Ffamily%3DAlegreya;whiteSpace=wrap;" vertex="1" parent="1">
          <mxGeometry x="2070" y="1110" width="40" height="30" as="geometry" />
        </mxCell>
        <mxCell id="934mbEcJw2QFP8VTqF5C-100" value="9" style="rounded=1;html=1;fontFamily=Alegreya;fontSource=https%3A%2F%2Ffonts.googleapis.com%2Fcss%3Ffamily%3DAlegreya;whiteSpace=wrap;" vertex="1" parent="1">
          <mxGeometry x="2150" y="1110" width="40" height="30" as="geometry" />
        </mxCell>
        <mxCell id="934mbEcJw2QFP8VTqF5C-101" value="a) 5, 4, 8, 7, 9&#xa;&#xa;b) 8, 5, 9, 7, 4&#xa;&#xa;c) 5, 8, 9, 7, 4&#xa;&#xa;d) 4, 5, 7, 8, 9&#xa;" style="text;whiteSpace=wrap;" vertex="1" parent="1">
          <mxGeometry x="410" y="60" width="140" height="150" as="geometry" />
        </mxCell>
        <mxCell id="934mbEcJw2QFP8VTqF5C-102" value="a) 5, 4, 8, 7, 9&#xa;&#xa;b) 8, 5, 9, 7, 4&#xa;&#xa;c) 5, 8, 9, 7, 4&#xa;&#xa;d) 4, 5, 7, 8, 9&#xa;" style="text;whiteSpace=wrap;" vertex="1" parent="1">
          <mxGeometry x="300" y="740" width="140" height="150" as="geometry" />
        </mxCell>
        <mxCell id="934mbEcJw2QFP8VTqF5C-103" value="a) 5, 4, 8, 7, 9&#xa;&#xa;b) 8, 5, 9, 7, 4&#xa;&#xa;c) 5, 8, 9, 7, 4&#xa;&#xa;d) 4, 5, 7, 8, 9&#xa;" style="text;whiteSpace=wrap;" vertex="1" parent="1">
          <mxGeometry x="1620" y="660" width="140" height="150" as="geometry" />
        </mxCell>
      </root>
    </mxGraphModel>
  </diagram>
</mxfile>
